<?xml version="1.0" encoding="UTF-8"?>
<!--Generator: Apple Native CoreSVG 232.5-->
<!DOCTYPE svg
PUBLIC "-//W3C//DTD SVG 1.1//EN"
       "http://www.w3.org/Graphics/SVG/1.1/DTD/svg11.dtd">
<svg version="1.1" xmlns="http://www.w3.org/2000/svg" xmlns:xlink="http://www.w3.org/1999/xlink" width="3300" height="2200">
 <!--glyph: "", point size: 100.0, font version: "19.2d2e1", template writer version: "128"-->
 <style>.monochrome-0 {-sfsymbols-motion-group:1}
.monochrome-1 {opacity:0.0;-sfsymbols-clear-behind:true;-sfsymbols-motion-group:0}
.monochrome-2 {-sfsymbols-motion-group:0;-sfsymbols-always-pulses:true}
.monochrome-3 {opacity:0.0;-sfsymbols-clear-behind:true;-sfsymbols-motion-group:0;-sfsymbols-always-pulses:true}

.multicolor-0:tintColor {-sfsymbols-motion-group:1}
.multicolor-1:tintColor {opacity:0.0;-sfsymbols-clear-behind:true;-sfsymbols-motion-group:0}
.multicolor-2:systemOrangeColor {-sfsymbols-motion-group:0;-sfsymbols-always-pulses:true}
.multicolor-3:white {-sfsymbols-motion-group:0;-sfsymbols-always-pulses:true}

.hierarchical-0:secondary {-sfsymbols-motion-group:1}
.hierarchical-1:primary {opacity:0.0;-sfsymbols-clear-behind:true;-sfsymbols-motion-group:0}
.hierarchical-2:primary {-sfsymbols-motion-group:0}
.hierarchical-3:primary {opacity:0.0;-sfsymbols-clear-behind:true;-sfsymbols-motion-group:0}

.SFSymbolsPreviewWireframe {fill:none;opacity:1.0;stroke:black;stroke-width:0.5}
</style>
 <g id="Notes">
  <rect height="2200" id="artboard" style="fill:white;opacity:1" width="3300" x="0" y="0"/>
  <line style="fill:none;stroke:black;opacity:1;stroke-width:0.5;" x1="263" x2="3036" y1="292" y2="292"/>
  <text style="stroke:none;fill:black;font-family:sans-serif;font-size:13;font-weight:bold;" transform="matrix(1 0 0 1 263 322)">Weight/Scale Variations</text>
  <text style="stroke:none;fill:black;font-family:sans-serif;font-size:13;text-anchor:middle;" transform="matrix(1 0 0 1 559.711 322)">Ultralight</text>
  <text style="stroke:none;fill:black;font-family:sans-serif;font-size:13;text-anchor:middle;" transform="matrix(1 0 0 1 856.422 322)">Thin</text>
  <text style="stroke:none;fill:black;font-family:sans-serif;font-size:13;text-anchor:middle;" transform="matrix(1 0 0 1 1153.13 322)">Light</text>
  <text style="stroke:none;fill:black;font-family:sans-serif;font-size:13;text-anchor:middle;" transform="matrix(1 0 0 1 1449.84 322)">Regular</text>
  <text style="stroke:none;fill:black;font-family:sans-serif;font-size:13;text-anchor:middle;" transform="matrix(1 0 0 1 1746.56 322)">Medium</text>
  <text style="stroke:none;fill:black;font-family:sans-serif;font-size:13;text-anchor:middle;" transform="matrix(1 0 0 1 2043.27 322)">Semibold</text>
  <text style="stroke:none;fill:black;font-family:sans-serif;font-size:13;text-anchor:middle;" transform="matrix(1 0 0 1 2339.98 322)">Bold</text>
  <text style="stroke:none;fill:black;font-family:sans-serif;font-size:13;text-anchor:middle;" transform="matrix(1 0 0 1 2636.69 322)">Heavy</text>
  <text style="stroke:none;fill:black;font-family:sans-serif;font-size:13;text-anchor:middle;" transform="matrix(1 0 0 1 2933.4 322)">Black</text>
  <line style="fill:none;stroke:black;opacity:1;stroke-width:0.5;" x1="263" x2="3036" y1="1903" y2="1903"/>
  <g transform="matrix(0.2 0 0 0.2 263 1933)">
   <path d="m46.2402 4.15039c21.5332 0 39.4531-17.8711 39.4531-39.4043s-17.9688-39.4043-39.502-39.4043c-21.4844 0-39.3555 17.8711-39.3555 39.4043s17.9199 39.4043 39.4043 39.4043Zm0-7.42188c-17.7246 0-31.8848-14.209-31.8848-31.9824s14.1113-31.9824 31.8359-31.9824c17.7734 0 32.0312 14.209 32.0312 31.9824s-14.209 31.9824-31.9824 31.9824Zm-17.9688-31.9824c0 2.14844 1.51367 3.61328 3.75977 3.61328h10.498v10.5957c0 2.19727 1.46484 3.71094 3.61328 3.71094 2.24609 0 3.71094-1.51367 3.71094-3.71094v-10.5957h10.5957c2.19727 0 3.71094-1.46484 3.71094-3.61328 0-2.19727-1.51367-3.71094-3.71094-3.71094h-10.5957v-10.5469c0-2.24609-1.46484-3.75977-3.71094-3.75977-2.14844 0-3.61328 1.51367-3.61328 3.75977v10.5469h-10.498c-2.24609 0-3.75977 1.51367-3.75977 3.71094Z"/>
  </g>
  <g transform="matrix(0.2 0 0 0.2 281.506 1933)">
   <path d="m58.5449 14.5508c27.2461 0 49.8047-22.6074 49.8047-49.8047 0-27.2461-22.6074-49.8047-49.8535-49.8047-27.1973 0-49.7559 22.5586-49.7559 49.8047 0 27.1973 22.6074 49.8047 49.8047 49.8047Zm0-8.30078c-23.0469 0-41.4551-18.457-41.4551-41.5039s18.3594-41.5039 41.4062-41.5039 41.5527 18.457 41.5527 41.5039-18.457 41.5039-41.5039 41.5039Zm-22.6562-41.5039c0 2.39258 1.66016 4.00391 4.15039 4.00391h14.3555v14.4043c0 2.44141 1.66016 4.15039 4.05273 4.15039 2.44141 0 4.15039-1.66016 4.15039-4.15039v-14.4043h14.4043c2.44141 0 4.15039-1.61133 4.15039-4.00391 0-2.44141-1.70898-4.15039-4.15039-4.15039h-14.4043v-14.3555c0-2.49023-1.70898-4.19922-4.15039-4.19922-2.39258 0-4.05273 1.70898-4.05273 4.19922v14.3555h-14.3555c-2.49023 0-4.15039 1.70898-4.15039 4.15039Z"/>
  </g>
  <g transform="matrix(0.2 0 0 0.2 304.924 1933)">
   <path d="m74.8535 28.3203c34.8145 0 63.623-28.8086 63.623-63.5742 0-34.8145-28.8574-63.623-63.6719-63.623-34.7656 0-63.5254 28.8086-63.5254 63.623 0 34.7656 28.8086 63.5742 63.5742 63.5742Zm0-9.08203c-30.1758 0-54.4434-24.3164-54.4434-54.4922 0-30.2246 24.2188-54.4922 54.3945-54.4922 30.2246 0 54.541 24.2676 54.541 54.4922 0 30.1758-24.2676 54.4922-54.4922 54.4922Zm-28.8574-54.4922c0 2.58789 1.85547 4.39453 4.58984 4.39453h19.7266v19.7754c0 2.68555 1.85547 4.58984 4.44336 4.58984 2.68555 0 4.54102-1.85547 4.54102-4.58984v-19.7754h19.7754c2.68555 0 4.58984-1.80664 4.58984-4.39453 0-2.73438-1.85547-4.58984-4.58984-4.58984h-19.7754v-19.7266c0-2.73438-1.85547-4.63867-4.54102-4.63867-2.58789 0-4.44336 1.9043-4.44336 4.63867v19.7266h-19.7266c-2.73438 0-4.58984 1.85547-4.58984 4.58984Z"/>
  </g>
  <text style="stroke:none;fill:black;font-family:sans-serif;font-size:13;font-weight:bold;" transform="matrix(1 0 0 1 263 1953)">Design Variations</text>
  <text style="stroke:none;fill:black;font-family:sans-serif;font-size:13;" transform="matrix(1 0 0 1 263 1971)">Symbols are supported in up to nine weights and three scales.</text>
  <text style="stroke:none;fill:black;font-family:sans-serif;font-size:13;" transform="matrix(1 0 0 1 263 1989)">For optimal layout with text and other symbols, vertically align</text>
  <text style="stroke:none;fill:black;font-family:sans-serif;font-size:13;" transform="matrix(1 0 0 1 263 2007)">symbols with the adjacent text.</text>
  <line style="fill:none;stroke:#00AEEF;stroke-width:0.5;opacity:1.0;" x1="776" x2="776" y1="1919" y2="1933"/>
  <g transform="matrix(0.2 0 0 0.2 776 1933)">
   <path d="m16.5527 0.78125c2.58789 0 3.85742-0.976562 4.78516-3.71094l6.29883-17.2363h28.8086l6.29883 17.2363c0.927734 2.73438 2.19727 3.71094 4.73633 3.71094 2.58789 0 4.24805-1.5625 4.24805-4.00391 0-0.830078-0.146484-1.61133-0.537109-2.63672l-22.9004-60.9863c-1.12305-2.97852-3.125-4.49219-6.25-4.49219-3.02734 0-5.07812 1.46484-6.15234 4.44336l-22.9004 61.084c-0.390625 1.02539-0.537109 1.80664-0.537109 2.63672 0 2.44141 1.5625 3.95508 4.10156 3.95508Zm13.4766-28.3691 11.8652-32.8613h0.244141l11.8652 32.8613Z"/>
  </g>
  <line style="fill:none;stroke:#00AEEF;stroke-width:0.5;opacity:1.0;" x1="792.836" x2="792.836" y1="1919" y2="1933"/>
  <text style="stroke:none;fill:black;font-family:sans-serif;font-size:13;font-weight:bold;" transform="matrix(1 0 0 1 776 1953)">Margins</text>
  <text style="stroke:none;fill:black;font-family:sans-serif;font-size:13;" transform="matrix(1 0 0 1 776 1971)">Leading and trailing margins on the left and right side of each symbol</text>
  <text style="stroke:none;fill:black;font-family:sans-serif;font-size:13;" transform="matrix(1 0 0 1 776 1989)">can be adjusted by modifying the x-location of the margin guidelines.</text>
  <text style="stroke:none;fill:black;font-family:sans-serif;font-size:13;" transform="matrix(1 0 0 1 776 2007)">Modifications are automatically applied proportionally to all</text>
  <text style="stroke:none;fill:black;font-family:sans-serif;font-size:13;" transform="matrix(1 0 0 1 776 2025)">scales and weights.</text>
  <g transform="matrix(0.2 0 0 0.2 1289 1933)">
   <path d="m14.209 9.32617 8.49609 8.54492c4.29688 4.3457 9.22852 4.05273 13.8672-1.07422l53.4668-58.9355-4.83398-4.88281-53.0762 58.3984c-1.75781 2.00195-3.41797 2.49023-5.76172 0.146484l-5.85938-5.81055c-2.34375-2.29492-1.80664-4.00391 0.195312-5.81055l57.373-54.0039-4.88281-4.83398-57.959 54.4434c-4.93164 4.58984-5.32227 9.47266-1.02539 13.8184Zm32.0801-90.9668c-2.09961 2.05078-2.24609 4.93164-1.07422 6.88477 1.17188 1.80664 3.4668 2.97852 6.68945 2.14844 7.32422-1.70898 14.9414-2.00195 22.0703 2.68555l-2.92969 7.27539c-1.70898 4.15039-0.830078 7.08008 1.85547 9.81445l11.4746 11.5723c2.44141 2.44141 4.49219 2.53906 7.32422 2.05078l5.32227-0.976562 3.32031 3.36914-0.195312 2.7832c-0.195312 2.49023 0.439453 4.39453 2.88086 6.78711l3.80859 3.71094c2.39258 2.39258 5.46875 2.53906 7.8125 0.195312l14.5508-14.5996c2.34375-2.34375 2.24609-5.32227-0.146484-7.71484l-3.85742-3.80859c-2.39258-2.39258-4.24805-3.17383-6.64062-2.97852l-2.88086 0.244141-3.22266-3.17383 1.2207-5.61523c0.634766-2.83203-0.146484-5.0293-3.07617-7.95898l-10.9863-10.9375c-16.6992-16.6016-38.8672-16.2109-53.3203-1.75781Zm7.4707 1.85547c12.1582-8.88672 28.6133-7.37305 39.7461 3.75977l12.1582 12.0605c1.17188 1.17188 1.36719 2.09961 1.02539 3.80859l-1.61133 7.42188 7.51953 7.42188 4.93164-0.292969c1.26953-0.0488281 1.66016 0.0488281 2.63672 1.02539l2.88086 2.88086-12.207 12.207-2.88086-2.88086c-0.976562-0.976562-1.12305-1.36719-1.07422-2.68555l0.341797-4.88281-7.4707-7.42188-7.61719 1.26953c-1.61133 0.341797-2.34375 0.195312-3.56445-0.976562l-10.0098-10.0098c-1.26953-1.17188-1.41602-2.00195-0.634766-3.85742l4.39453-10.4492c-7.8125-7.27539-17.9688-10.4004-28.125-7.42188-0.78125 0.195312-1.07422-0.439453-0.439453-0.976562Z"/>
  </g>
  <text style="stroke:none;fill:black;font-family:sans-serif;font-size:13;font-weight:bold;" transform="matrix(1 0 0 1 1289 1953)">Exporting</text>
  <text style="stroke:none;fill:black;font-family:sans-serif;font-size:13;" transform="matrix(1 0 0 1 1289 1971)">Symbols should be outlined when exporting to ensure the</text>
  <text style="stroke:none;fill:black;font-family:sans-serif;font-size:13;" transform="matrix(1 0 0 1 1289 1989)">design is preserved when submitting to Xcode.</text>
  <text id="template-version" style="stroke:none;fill:black;font-family:sans-serif;font-size:13;text-anchor:end;" transform="matrix(1 0 0 1 3036 1933)">Template v.5.0</text>
  <text style="stroke:none;fill:black;font-family:sans-serif;font-size:13;text-anchor:end;" transform="matrix(1 0 0 1 3036 1951)">Requires Xcode 15 or greater</text>
  <text id="descriptive-name" style="stroke:none;fill:black;font-family:sans-serif;font-size:13;text-anchor:end;" transform="matrix(1 0 0 1 3036 1969)">Generated from </text>
  <text style="stroke:none;fill:black;font-family:sans-serif;font-size:13;text-anchor:end;" transform="matrix(1 0 0 1 3036 1987)">Typeset at 100.0 points</text>
  <text style="stroke:none;fill:black;font-family:sans-serif;font-size:13;" transform="matrix(1 0 0 1 263 726)">Small</text>
  <text style="stroke:none;fill:black;font-family:sans-serif;font-size:13;" transform="matrix(1 0 0 1 263 1156)">Medium</text>
  <text style="stroke:none;fill:black;font-family:sans-serif;font-size:13;" transform="matrix(1 0 0 1 263 1586)">Large</text>
 </g>
 <g id="Guides">
  <g id="H-reference" style="fill:#27AAE1;stroke:none;" transform="matrix(1 0 0 1 339 696)">
   <path d="M0.993654 0L3.63775 0L29.3281-67.1323L30.0303-67.1323L30.0303-70.459L28.1226-70.459ZM11.6885-24.4799L46.9815-24.4799L46.2315-26.7285L12.4385-26.7285ZM55.1196 0L57.7637 0L30.6382-70.459L29.4326-70.459L29.4326-67.1323Z"/>
  </g>
  <line id="Baseline-S" style="fill:none;stroke:#27AAE1;opacity:1;stroke-width:0.5;" x1="263" x2="3036" y1="696" y2="696"/>
  <line id="Capline-S" style="fill:none;stroke:#27AAE1;opacity:1;stroke-width:0.5;" x1="263" x2="3036" y1="625.541" y2="625.541"/>
  <g id="H-reference" style="fill:#27AAE1;stroke:none;" transform="matrix(1 0 0 1 339 1126)">
   <path d="M0.993654 0L3.63775 0L29.3281-67.1323L30.0303-67.1323L30.0303-70.459L28.1226-70.459ZM11.6885-24.4799L46.9815-24.4799L46.2315-26.7285L12.4385-26.7285ZM55.1196 0L57.7637 0L30.6382-70.459L29.4326-70.459L29.4326-67.1323Z"/>
  </g>
  <line id="Baseline-M" style="fill:none;stroke:#27AAE1;opacity:1;stroke-width:0.5;" x1="263" x2="3036" y1="1126" y2="1126"/>
  <line id="Capline-M" style="fill:none;stroke:#27AAE1;opacity:1;stroke-width:0.5;" x1="263" x2="3036" y1="1055.54" y2="1055.54"/>
  <g id="H-reference" style="fill:#27AAE1;stroke:none;" transform="matrix(1 0 0 1 339 1556)">
   <path d="M0.993654 0L3.63775 0L29.3281-67.1323L30.0303-67.1323L30.0303-70.459L28.1226-70.459ZM11.6885-24.4799L46.9815-24.4799L46.2315-26.7285L12.4385-26.7285ZM55.1196 0L57.7637 0L30.6382-70.459L29.4326-70.459L29.4326-67.1323Z"/>
  </g>
  <line id="Baseline-L" style="fill:none;stroke:#27AAE1;opacity:1;stroke-width:0.5;" x1="263" x2="3036" y1="1556" y2="1556"/>
  <line id="Capline-L" style="fill:none;stroke:#27AAE1;opacity:1;stroke-width:0.5;" x1="263" x2="3036" y1="1485.54" y2="1485.54"/>
  <line id="left-margin-Ultralight-S" style="fill:none;stroke:#00AEEF;stroke-width:0.5;opacity:1.0;" x1="513.804" x2="513.804" y1="600.785" y2="720.121"/>
  <line id="right-margin-Ultralight-S" style="fill:none;stroke:#FF3B30;stroke-width:0.5;opacity:1.0;" x1="605.619" x2="605.619" y1="600.785" y2="720.121"/>
  <line id="left-margin-Regular-S" style="fill:none;stroke:#00AEEF;stroke-width:0.5;opacity:1.0;" x1="1401.87" x2="1401.87" y1="600.785" y2="720.121"/>
  <line id="right-margin-Regular-S" style="fill:none;stroke:#FF3B30;stroke-width:0.5;opacity:1.0;" x1="1497.82" x2="1497.82" y1="600.785" y2="720.121"/>
  <line id="left-margin-Black-S" style="fill:none;stroke:#00AEEF;stroke-width:0.5;opacity:1.0;" x1="2883.69" x2="2883.69" y1="600.785" y2="720.121"/>
  <line id="right-margin-Black-S" style="fill:none;stroke:#FF3B30;stroke-width:0.5;opacity:1.0;" x1="2983.11" x2="2983.11" y1="600.785" y2="720.121"/>
 </g>
 <g id="Symbols">
  <g id="Black-S" transform="matrix(1 0 0 1 2883.69 696)">
   <path class="monochrome-0 multicolor-0:tintColor hierarchical-0:secondary SFSymbolsPreviewWireframe" d="M72.2-34.4C78.4-37.2 83.2-40.9 86.4-44.4L86.4-12.3C86.4-2.9 80.9 2.9 71.2 2.9L28.3 2.9C19.2 2.9 13-2.2 13-12.3L13-55.2C13-64.4 18.4-70.4 28.2-70.4L63.3-70.4C59.1-66.8 54.6-62.1 50.3-56.2L30.5-56.2C28.1-56.2 27.2-55.2 27.2-52.9L27.2-14.5C27.2-12.3 28.1-11.2 30.5-11.2L68.9-11.2C70.6-11.2 72.2-11.6 72.2-14.5L72.2-34.4ZM40.3-18.4C41.9-17.4 44.2-17.9 45.6-19.7C49.2-24.3 56.3-35 63.7-36.5C79.7-39.7 75-45.5 75-45.5C93.6-49.7 84.5-56.8 84.5-56.8C105.7-61.5 96.9-79.3 77.9-72.6C60.6-66.5 43.2-33.3 38.4-24.3C37.4-22.4 37.4-20.7 39.1-19.2L40.3-18.4Z"/>
   <path class="monochrome-1 multicolor-1:tintColor hierarchical-1:primary SFSymbolsPreviewWireframe" d="M89.4781 20.2949C104.42 20.2949 116.773 7.89255 116.773-7.04885C116.773-21.9903 104.42-34.2949 89.4781-34.2949C74.5367-34.2949 62.1832-21.9903 62.1832-7.04885C62.1832 7.89255 74.5367 20.2949 89.4781 20.2949Z"/>
   <path class="monochrome-2 multicolor-2:systemOrangeColor hierarchical-2:primary SFSymbolsPreviewWireframe" d="M89.4781 13.9473C100.953 13.9473 110.426 4.37695 110.426-7.04885C110.426-18.4746 100.953-27.9472 89.4781-27.9472C78.0035-27.9472 68.5308-18.4746 68.5308-7.04885C68.5308 4.37695 78.0035 13.9473 89.4781 13.9473Z"/>
   <path class="monochrome-3 multicolor-3:white hierarchical-3:primary SFSymbolsPreviewWireframe" d="M88.355-2.45895C86.1578-2.45895 84.0582-3.53325 84.0582-5.63285C84.0582-5.68165 84.0582-5.77925 84.0582-5.82815C84.0582-7.34175 85.23-8.51365 87.0855-9.83205C89.0386-11.1504 90.1617-11.9805 90.1617-12.8593C90.1617-13.543 89.7222-13.9824 89.0386-13.9824C88.4039-13.9824 87.9156-13.6894 87.0855-12.957C86.4996-12.4199 85.5718-11.6386 83.7652-11.6386C80.9332-11.6386 79.6148-13.25 79.6148-15.0078C79.6148-19.0118 84.6929-21.3066 89.5757-21.3066C95.4348-21.3066 99.7808-17.9375 99.7808-13.3964C99.7808-9.58785 96.9978-8.70895 94.898-7.29295C94.0679-6.75585 93.3355-6.07225 92.896-5.14455C92.1148-3.28905 90.2105-2.45895 88.355-2.45895ZM88.2574 6.91605C85.7183 6.91605 83.814 5.54885 83.814 3.10745C83.814 0.76365 85.7183-0.65235 88.2574-0.65235C90.8941-0.65235 92.7007 0.76365 92.7007 3.10745C92.7007 5.54885 90.8941 6.91605 88.2574 6.91605Z"/>
  </g>
  <g id="Regular-S" transform="matrix(1 0 0 1 1401.87 696)">
   <path class="monochrome-0 multicolor-0:tintColor hierarchical-0:secondary SFSymbolsPreviewWireframe" d="M75.2-44.6C78.8-45.6 81-46.6 82.3-47.7L82.3-12C82.3-3.8 78.1 0.3 71.2 0.3L26.1 0.3C17.8 0.3 13.6-3.8 13.6-12L13.6-56.1C13.6-64.3 17.8-68.4 26.1-68.4L65.8-68.4C63.3-66.4 60.9-64 58.5-61.4L26.2-61.4C22.7-61.4 20.7-59.5 20.7-55.8L20.7-12.4C20.7-8.7 22.7-6.8 26.2-6.8L71.2-6.8C73.3-6.8 75.3-8.7 75.3-12.4L75.3-44.6ZM37.2-17.1C38.2-16.4 39.6-16.6 40.3-17.7C43.7-22.8 53.5-36.7 60.8-38.2C78.6-41.9 69.9-46.6 69.9-46.6C92.2-51.1 78.7-57.7 78.7-57.7C100.2-61.8 95.2-77 76.7-70.9C59.3-65.1 41.3-29 36.5-19.9C36-18.9 36.3-17.7 37.2-17.1L37.2-17.1Z"/>
   <path class="monochrome-1 multicolor-1:tintColor hierarchical-1:primary SFSymbolsPreviewWireframe" d="M86.355 18.3906C100.174 18.3906 111.746 6.8184 111.746-7C111.746-20.916 100.271-32.3906 86.355-32.3906C72.3901-32.3906 60.9644-20.916 60.9644-7C60.9644 6.9649 72.3901 18.3906 86.355 18.3906Z"/>
   <path class="monochrome-2 multicolor-2:systemOrangeColor hierarchical-2:primary SFSymbolsPreviewWireframe" d="M86.355 12.6777C96.9996 12.6777 106.033 3.7422 106.033-7C106.033-17.791 97.1456-26.6777 86.355-26.6777C75.564-26.6777 66.6284-17.791 66.6284-7C66.6284 3.8399 75.564 12.6777 86.355 12.6777Z"/>
   <path class="monochrome-3 multicolor-3:white hierarchical-3:primary SFSymbolsPreviewWireframe" d="M86.0132-2.0684C84.5972-2.0684 83.8159-2.8496 83.8159-4.2656C83.8159-4.3144 83.8159-4.3633 83.8159-4.3633C83.8159-6.8535 85.2319-8.123 86.8433-9.2461C88.894-10.6621 90.0171-11.4434 90.0171-13.0547C90.0171-14.6172 88.7476-15.6426 86.8921-15.6426C85.1831-15.6426 84.2554-14.9101 83.3765-14.0312C82.5952-13.2988 82.0093-12.5664 80.9351-12.5664C79.6167-12.5664 78.7866-13.3965 78.7866-14.666C78.7866-17.791 82.8394-19.793 86.8921-19.793C91.6772-19.793 94.8996-17.1562 94.8996-13.2988C94.8996-10.2715 92.9468-8.9531 90.7495-7.3418C89.2847-6.2187 88.4546-5.5351 88.3081-4.0215C88.1616-2.8008 87.478-2.0684 86.0132-2.0684ZM86.0132 5.6465C84.353 5.6465 83.0347 4.2793 83.0347 2.6191C83.0347 1.0078 84.353-0.3594 86.0132-0.3594C87.6733-0.3594 88.9917 1.0078 88.9917 2.6191C88.9917 4.2793 87.6733 5.6465 86.0132 5.6465Z"/>
  </g>
  <g id="Ultralight-S" transform="matrix(1 0 0 1 513.804 696)">
   <path class="monochrome-0 multicolor-0:tintColor hierarchical-0:secondary SFSymbolsPreviewWireframe" d="M75.6-47.6C76.5-48 76.9-48.2 77.8-48.7L77.8-12C77.8-4.9 73.8-2 67.9-2L24-2C17.1-2 14-5.8 14-12L14-55.9C14-62.1 17.2-65.9 24-65.9L64.6-65.9C63.3-64.9 63.2-64.8 62.1-63.7L24.1-63.7C19.4-63.7 16.2-61.5 16.2-55.8L16.2-12.2C16.2-6.8 19.1-4.3 24.1-4.3L67.8-4.3C72.4-4.3 75.6-6.4 75.6-12.2L75.6-47.6ZM35.2-16.9C35.9-16.4 36.9-16.6 37.4-17.3C40.4-21.9 50.8-37.2 58.4-38.7C77-42.4 66-46.7 66-46.7C91.3-51.8 74.6-57.8 74.6-57.8C96.1-61.9 93.6-75.9 75.1-69.7C57.2-63.9 39-27.1 34.6-19C34.2-18.3 34.4-17.5 35.1-17L35.2-16.9Z"/>
   <path class="monochrome-1 multicolor-1:tintColor hierarchical-1:primary SFSymbolsPreviewWireframe" d="M82.656 14.3492C94.2946 14.3492 104.006 4.72955 104.006-6.99995C104.006-18.7362 94.3466-28.3492 82.656-28.3492C70.9616-28.3492 61.2614-18.6908 61.2614-6.99995C61.2614 4.73985 70.9616 14.3492 82.656 14.3492Z"/>
   <path class="monochrome-2 multicolor-2:systemOrangeColor hierarchical-2:primary SFSymbolsPreviewWireframe" d="M82.656 11.2701C92.6196 11.2701 100.926 3.06105 100.926-6.99995C100.926-17.0644 92.6746-25.2699 82.656-25.2699C72.6369-25.2699 64.3371-17.019 64.3371-6.99995C64.3371 3.06795 72.6369 11.2701 82.656 11.2701Z"/>
   <path class="monochrome-3 multicolor-3:white hierarchical-3:primary SFSymbolsPreviewWireframe" d="M82.3596-2.65865C81.4431-2.65865 80.8435-3.21285 80.8435-4.12935C80.8435-4.22355 80.8435-4.27245 80.8435-4.36325C80.8435-6.17235 81.6237-7.26025 83.5983-8.65575C85.6491-10.0717 87.2263-11.0346 87.2263-13.1908C87.2263-15.0712 85.5935-16.2782 83.1022-16.2782C81.0754-16.2782 79.5119-15.2279 78.7692-14.3036C78.2605-13.6621 77.9016-13.0204 77.009-13.0204C76.281-13.0204 75.7687-13.5326 75.7687-14.3936C75.7687-16.5195 79.0041-19.1117 83.0568-19.1117C87.4787-19.1117 90.1565-16.3388 90.1565-13.2987C90.1565-10.6347 88.7937-9.54345 86.5964-7.93205C84.5866-6.40035 83.9836-5.62595 83.8371-4.02145C83.7815-3.20945 83.2341-2.65865 82.3596-2.65865ZM82.3596 4.42045C81.0173 4.42045 79.9714 3.37115 79.9714 2.02885C79.9714 0.73545 81.0627-0.35935 82.3596-0.35935C83.6565-0.35935 84.7932 0.78085 84.7478 2.02885C84.7024 3.37115 83.611 4.42045 82.3596 4.42045Z"/>
  </g>
 </g>
</svg>
